<svg xmlns="http://www.w3.org/2000/svg" version="1.1" xmlns:xlink="http://www.w3.org/1999/xlink" xmlns:svgjs="http://svgjs.dev/svgjs" width="100%" height="100%" viewBox="0 0 1000 600"><rect width="1000" height="600" x="0" y="0" fill="#1f2833"/><g><circle r="166.66666666666666" cx="355.2126108805338" cy="377.4348162748913" fill="#66fcf1" transform="matrix(0.6629684021749335,0,0,0.6629684021749336,0,49.7726352996512)"/><path d="M289.12589668831185 317.97959332395754L249.42253114463918 317.97959332395754L249.42253114463918 368.09368330975707Q253.5297758560536 368.09368330975707 266.42196064466 368.29334103878415Q279.31414543326633 368.49299876781123 286.3306884819326 368.49299876781123L286.3306884819326 368.49299876781123Q305.4693079358151 368.49299876781123 312.99925657340816 362.13247397166253Q320.5292052110013 355.7719491755138 320.5292052110013 341.9385208072083L320.5292052110013 341.9385208072083Q320.5292052110013 329.787921869274 313.3130044333079 323.8837575966158Q306.06828112289634 317.97959332395754 289.12589668831185 317.97959332395754L289.12589668831185 317.97959332395754ZM320.2154573511016 400.0959650195277L344.48813269425204 452.4348125573434L324.4367921933886 452.4348125573434L303.98613623447096 405.9145616940315Q295.6575566807695 387.14673516548504 293.3472315305989 383.35323831397034L293.3472315305989 383.35323831397034Q286.0169406220329 383.83812137017895 276.0055316379603 383.83812137017895L276.0055316379603 383.83812137017895L249.42253114463918 383.03949045407063L249.42253114463918 452.4348125573434L231.68151579394635 452.4348125573434L231.68151579394635 302.4348129925627L279.1144877042392 302.4348129925627Q287.3289771270681 302.4348129925627 293.6324568577805 302.83412845061684Q299.964459121211 303.233443908671 306.23941631920525 304.2887776192428Q312.4858509844814 305.34411132981455 317.10650128482257 307.1980759564947Q321.7271515851638 309.0520405831748 325.7203061657056 311.98986145314484Q329.74198327896556 314.95620485583305 332.19492109272693 319.06344956724746Q334.64785890648835 323.17069427866187 336.07398554239614 328.84667828957487Q337.4715896455857 334.5226623004878 337.4715896455857 341.6247729473086L337.4715896455857 341.6247729473086Q337.4715896455857 355.65785904464116 330.08425367158344 365.78335815958644Q322.7254402302993 375.93737980724984 309.17723718917534 379.84496678963717L309.17723718917534 379.84496678963717Q309.17723718917534 380.0446245186643 311.2023370121644 383.4388059121248Q313.19891430243524 386.86150983830345 315.96559997609637 391.8244305312626Q318.70376311703933 396.78735122422165 320.2154573511016 400.0959650195277L320.2154573511016 400.0959650195277ZM423.4099807253888 317.97959332395754L383.6780926489979 317.97959332395754L383.6780926489979 368.09368330975707Q387.8138598931305 368.09368330975707 400.6775221490187 368.29334103878415Q413.569706937625 368.49299876781123 420.58624998629136 368.49299876781123L420.58624998629136 368.49299876781123Q439.753391972892 368.49299876781123 447.25481807776697 362.13247397166253Q454.78476671536004 355.7719491755138 454.78476671536004 341.9385208072083L454.78476671536004 341.9385208072083Q454.78476671536004 329.787921869274 447.5685659376666 323.8837575966158Q440.35236515997326 317.97959332395754 423.4099807253888 317.97959332395754L423.4099807253888 317.97959332395754ZM454.49954138817844 400.0959650195277L478.74369419861085 452.4348125573434L458.69235369774736 452.4348125573434L438.24169773882977 405.9145616940315Q429.91311818512827 387.14673516548504 427.6027930349577 383.35323831397034L427.6027930349577 383.35323831397034Q420.30102465910977 383.83812137017895 410.26109314231906 383.83812137017895L410.26109314231906 383.83812137017895L383.6780926489979 383.03949045407063L383.6780926489979 452.4348125573434L365.9370772983051 452.4348125573434L365.9370772983051 302.4348129925627L413.370049208598 302.4348129925627Q421.5845386314268 302.4348129925627 427.91654089485735 302.83412845061684Q434.2200206255698 303.233443908671 440.49497782356406 304.2887776192428Q446.7699350215583 305.34411132981455 451.39058532189955 307.1980759564947Q455.9827130895226 309.0520405831748 460.00439020278253 311.98986145314484Q464.02606731604243 314.95620485583305 466.47900512980385 319.06344956724746Q468.9319429435652 323.17069427866187 470.32954704675484 328.84667828957487Q471.7271511499445 334.5226623004878 471.7271511499445 341.6247729473086L471.7271511499445 341.6247729473086Q471.7271511499445 355.65785904464116 464.36833770866036 365.78335815958644Q456.98100173465804 375.93737980724984 443.46132122625227 379.84496678963717L443.46132122625227 379.84496678963717Q443.46132122625227 380.0446245186643 445.45789851652313 383.4388059121248Q447.45447580679405 386.86150983830345 450.2211614804551 391.8244305312626Q452.98784715411625 396.78735122422165 454.49954138817844 400.0959650195277L454.49954138817844 400.0959650195277Z " fill="#1f2833" transform="matrix(0.6629684021749335,0,0,0.6629684021749336,0,49.7726352996512)"/><path d="M648.3327898340909 314.1033830879729L618.5297628178007 314.1033830879729L618.5297628178007 351.7211406078163Q621.6128345781066 351.7211406078163 631.2902542701779 351.87101215172004Q640.9676739622491 352.0208836956238 646.2345882194384 352.0208836956238L646.2345882194384 352.0208836956238Q660.6008462136415 352.0208836956238 666.2531444408689 347.24640451126123Q671.9054426680964 342.47192532689866 671.9054426680964 332.0879683564239L671.9054426680964 332.0879683564239Q671.9054426680964 322.9672143988523 666.4886568670034 318.5352987434126Q661.0504608453527 314.1033830879729 648.3327898340909 314.1033830879729L648.3327898340909 314.1033830879729ZM671.669930241962 375.74340807353303L689.8900279365474 415.03116279687544L674.8386428844985 415.03116279687544L659.4875147446421 380.1110930672997Q653.2357303417996 366.0231679403464 651.5015024766276 363.175608606175L651.5015024766276 363.175608606175Q645.9990757933039 363.53958235565557 638.4840883775582 363.53958235565557L638.4840883775582 363.53958235565557L618.5297628178007 362.9400961800405L618.5297628178007 415.03116279687544L605.2126056309239 415.03116279687544L605.2126056309239 302.4348128840374L640.8178024183453 302.4348128840374Q646.983945938957 302.4348128840374 651.7156046822043 302.73455597184494Q656.4686736460093 303.0342990596524 661.1789221686988 303.8264772202866Q665.8677604708307 304.61865538092076 669.3362162011748 306.0103197171699Q672.8046719315189 307.40198405341914 675.8021028095941 309.60723677086014Q678.820943908227 311.83389970885884 680.6622228761875 314.9169714691647Q682.5035018441479 318.00004322947063 683.574012872032 322.2606771204489Q684.6231136793582 326.52131101142714 684.6231136793582 331.85245593028947L684.6231136793582 331.85245593028947Q684.6231136793582 342.3862844446679 679.0778665549192 349.9869127426442Q673.5540296510378 357.6089512611782 663.3841748861398 360.5421514775804L663.3841748861398 360.5421514775804Q663.3841748861398 360.69202302148415 664.9043005457352 363.239839267848Q666.4030159847728 365.8090657347696 668.4798073788677 369.5344441118059Q670.5351885524049 373.2598224888422 671.669930241962 375.74340807353303L671.669930241962 375.74340807353303ZM727.828938764756 414.4316766212604L695.1569421937367 332.4519421059045L708.4740993806136 332.4519421059045L734.5303377993098 401.1787500960566L757.6961964427194 332.4519421059045L771.0347638501539 332.4519421059045Q737.6134095596157 424.4302496216969 736.4786678700586 427.299219176426L736.4786678700586 427.299219176426Q731.2759842745425 440.3166332754953 723.9108684027007 446.37572569331866Q716.5243423103011 452.4348181111421 704.491798356885 452.4348181111421L704.491798356885 452.4348181111421Q700.8734710826371 452.4348181111421 696.8911700589088 451.835331935527L696.8911700589088 451.835331935527L696.14181233939 441.1516318772448Q700.3596257892528 441.4513749650523 702.4578274039055 441.4513749650523L702.4578274039055 441.4513749650523Q710.9576849653043 441.4513749650523 715.3681904001863 438.3254827636311Q719.7786958350684 435.19959056220983 723.2257413448549 426.61409211858023L723.2257413448549 426.61409211858023Q726.3088131051608 418.7137207327964 727.828938764756 414.4316766212604L727.828938764756 414.4316766212604ZM804.6059896845958 406.5955358971496L804.6059896845958 406.5955358971496Q813.555461877706 406.5955358971496 820.3639120150481 401.67118516888326Q827.1723621523903 396.7468344406169 829.1421024436968 388.3754382025641L829.1421024436968 388.3754382025641L829.1421024436968 374.45879484007224Q828.7567184736586 374.45879484007224 824.581725464911 374.84417881011046Q820.4067324561635 375.20815255959104 819.1221192227026 375.2937934418217L819.1221192227026 375.2937934418217Q802.786120937193 376.7282782191863 796.363054769889 380.62493836068404Q789.9185783820274 384.54300872273944 789.9185783820274 393.1927378280421L789.9185783820274 393.1927378280421Q789.9185783820274 399.8299062009228 793.8366487440828 403.21272104903625Q797.7547191061383 406.5955358971496 804.6059896845958 406.5955358971496ZM841.7099019110549 415.03116279687544L831.9254311161951 415.03116279687544Q830.7906894266382 410.21386317139746 829.7415886193119 404.64720582640075L829.7415886193119 404.64720582640075Q822.8903180408543 411.4984764048583 816.8740460641463 414.1319335334529Q810.8363638668806 416.76539066204754 802.72189027552 416.76539066204754L802.72189027552 416.76539066204754Q791.1175507332575 416.76539066204754 784.0949983903386 410.7062982442241Q777.0510358268618 404.64720582640075 777.0510358268618 393.27837871027276L777.0510358268618 393.27837871027276Q777.0510358268618 380.62493836068404 786.6428146367025 374.544435722303Q796.2345934465429 368.4425228633642 814.3048195972247 366.9438074243266L814.3048195972247 366.9438074243266Q816.7884051819156 366.7082949981922 821.7983967924126 366.30150080759626Q826.8083884029097 365.87329639644264 829.2919739876006 365.65919419086583L829.2919739876006 365.65919419086583L829.2919739876006 358.358308980697Q829.2919739876006 349.6229389931637 825.2240320816414 345.40512554330076Q821.1560901756823 341.1873120934378 812.4207201881488 341.1873120934378L812.4207201881488 341.1873120934378Q800.2383046908291 341.1873120934378 787.8203767673748 347.20358407014584L787.8203767673748 347.20358407014584Q787.4349927973366 346.3043548067233 785.8506364760683 341.979490254072Q784.2662801547999 337.6546257014207 784.2020494931269 337.5047541575169L784.2020494931269 337.5047541575169Q789.7044761764506 334.42168239721104 797.2622840333116 332.58040342925057Q804.8200918901725 330.7177142407324 812.6562326142835 330.7177142407324L812.6562326142835 330.7177142407324Q828.0930016363704 330.7177142407324 834.9014517737127 337.4619337164016Q841.7099019110549 344.2061531920707 841.7099019110549 360.3922799336766L841.7099019110549 360.3922799336766L841.7099019110549 415.03116279687544ZM876.1161263472462 415.03116279687544L863.3770451154268 415.03116279687544L863.3770451154268 332.4519421059045L873.932283850363 332.4519421059045L875.4952299510735 344.27038385374374Q880.3981704587823 338.1898812153627 887.7418761100664 334.4645028383264Q895.0641715407929 330.7177142407324 903.5854393227494 330.7177142407324L903.5854393227494 330.7177142407324Q917.8874666552796 330.7177142407324 924.7387372337371 338.74654694986236Q931.5900078121947 346.7539694384346 931.5900078121947 363.3897108117518L931.5900078121947 363.3897108117518L931.5900078121947 415.03116279687544L919.0007981242788 415.03116279687544Q919.0007981242788 365.35945110305835 918.9365674626058 361.80535449048347L918.9365674626058 361.80535449048347Q918.6368243747984 351.271525976105 914.6759335716276 346.389995688954Q910.7364529890145 341.48705518124535 901.4658274875392 341.48705518124535L901.4658274875392 341.48705518124535Q891.7669975749102 341.48705518124535 885.2797007459333 346.15448326281955Q878.813814137514 350.82191134439375 876.8654840667651 358.27266809846634L876.8654840667651 358.27266809846634Q876.1161263472462 363.32548015007876 876.1161263472462 369.8770076407288L876.1161263472462 369.8770076407288L876.1161263472462 415.03116279687544ZM1034.401886930173 314.1033830879729L1004.5988599138827 314.1033830879729L1004.5988599138827 351.7211406078163Q1007.6819316741886 351.7211406078163 1017.35935136626 351.87101215172004Q1027.0153608377736 352.0208836956238 1032.2822750949626 352.0208836956238L1032.2822750949626 352.0208836956238Q1046.6699433097235 352.0208836956238 1052.322241536951 347.24640451126123Q1057.953129543621 342.47192532689866 1057.953129543621 332.0879683564239L1057.953129543621 332.0879683564239Q1057.953129543621 322.9672143988523 1052.5363437425278 318.5352987434126Q1047.1195579414348 314.1033830879729 1034.401886930173 314.1033830879729L1034.401886930173 314.1033830879729ZM1057.739027338044 375.74340807353303L1075.9591250326296 415.03116279687544L1060.8863297600228 415.03116279687544L1045.5352016201666 380.1110930672997Q1039.2834172173239 366.0231679403464 1037.5705995727096 363.175608606175L1037.5705995727096 363.175608606175Q1032.068172889386 363.53958235565557 1024.5317752530827 363.53958235565557L1024.5317752530827 363.53958235565557L1004.5988599138827 362.9400961800405L1004.5988599138827 415.03116279687544L991.2602925064482 415.03116279687544L991.2602925064482 302.4348128840374L1026.8654892938698 302.4348128840374Q1033.053043035039 302.4348128840374 1037.7847017782865 302.73455597184494Q1042.5377707420912 303.0342990596524 1047.226609044223 303.8264772202866Q1051.9368575669127 304.61865538092076 1055.405313297257 306.0103197171699Q1058.8523588070434 307.40198405341914 1061.8711999056761 309.60723677086014Q1064.890041004309 311.83389970885884 1066.7313199722694 314.9169714691647Q1068.57259894023 318.00004322947063 1069.6216997475562 322.2606771204489Q1070.6708005548826 326.52131101142714 1070.6708005548826 331.85245593028947L1070.6708005548826 331.85245593028947Q1070.6708005548826 342.3862844446679 1065.1469636510012 349.9869127426442Q1059.6231267471198 357.6089512611782 1049.4532719822218 360.5421514775804L1049.4532719822218 360.5421514775804Q1049.4532719822218 360.69202302148415 1050.9519874212594 363.239839267848Q1052.4721130808548 365.8090657347696 1054.527494254392 369.5344441118059Q1056.604285648487 373.2598224888422 1057.739027338044 375.74340807353303L1057.739027338044 375.74340807353303ZM1100.9448524234417 373.92353932613025L1100.9448524234417 373.92353932613025Q1100.9448524234417 388.61095062869856 1107.4535594729764 397.45337171902037Q1113.962266522511 406.2957928093421 1126.4658353281961 406.2957928093421L1126.4658353281961 406.2957928093421Q1138.7981223694196 406.2957928093421 1145.0927272133777 397.4961921601357Q1151.3659218367777 388.6965915109293 1151.3659218367777 373.7736677822265L1151.3659218367777 373.7736677822265Q1151.3659218367777 358.65805206850456 1145.1569578750505 349.9655025220866Q1138.9479939133234 341.27295297566855 1126.2303229020617 341.27295297566855L1126.2303229020617 341.27295297566855Q1113.8766256402805 341.27295297566855 1107.410739031861 350.1581945071057Q1100.9448524234417 359.02202581798514 1100.9448524234417 373.92353932613025ZM1164.3833359358468 373.70943712055345L1164.3833359358468 373.70943712055345Q1164.3833359358468 392.89299474023454 1154.149250509276 404.83989781141986Q1143.9151650827052 416.76539066204754 1125.8449389320235 416.76539066204754L1125.8449389320235 416.76539066204754Q1108.4598398391875 416.76539066204754 1098.182933971501 404.7114364880738Q1087.9274383243724 392.67889253465773 1087.9274383243724 373.7736677822265L1087.9274383243724 373.7736677822265Q1087.9274383243724 354.50446928031465 1098.2257544126164 342.62179687080237Q1108.5454807214182 330.7177142407324 1126.5300659898692 330.7177142407324L1126.5300659898692 330.7177142407324Q1144.214908170513 330.7177142407324 1154.2991220531799 342.66461731191777Q1164.3833359358468 354.5901101625454 1164.3833359358468 373.70943712055345ZM1206.7755726400528 416.76539066204754L1206.7755726400528 416.76539066204754Q1198.339945740327 416.76539066204754 1191.2317525151775 414.94552191464476Q1184.1021490694702 413.1470633877996 1179.6702334140305 410.2995040536282L1179.6702334140305 410.2995040536282L1181.2545897352989 399.680034657019Q1193.8223892026567 406.3814336915728 1205.9405740383036 406.3814336915728L1205.9405740383036 406.3814336915728Q1224.3105432767927 406.3814336915728 1224.824388570177 393.42825025417653L1224.824388570177 393.42825025417653Q1224.824388570177 387.92582357085286 1220.9277284286793 384.7785211488739Q1217.009658066624 381.6098085063373 1205.5551900682653 377.6917381442819L1205.5551900682653 377.6917381442819L1199.3248158859806 375.5078956473986Q1188.4698340632367 371.91097859370836 1183.845226422778 366.5584234542884Q1179.220618782319 361.20586831486844 1179.1349779000884 353.24126626741156L1179.1349779000884 353.24126626741156Q1179.1349779000884 343.52102613422494 1186.9282981830838 337.1193701874787Q1194.7216184660792 330.7177142407324 1208.2742880790906 330.7177142407324L1208.2742880790906 330.7177142407324Q1222.2765723238133 330.7177142407324 1233.7952709838448 336.1559102623831L1233.7952709838448 336.1559102623831L1230.112713047924 345.790509513339Q1218.4441428439884 340.97320988786106 1208.2742880790906 340.97320988786106L1208.2742880790906 340.97320988786106Q1200.3739166933067 340.97320988786106 1195.8991805967516 344.09910208928227Q1191.4030342796389 347.20358407014584 1191.4030342796389 352.85588229737334L1191.4030342796389 352.85588229737334Q1191.4030342796389 357.67318192285126 1194.6573878044064 360.24240838977283Q1197.890331108616 362.79022463613677 1207.5891610212448 366.10880882257715L1207.5891610212448 366.10880882257715Q1210.0727466059357 367.00803808599966 1213.8409454240873 368.2070104372297L1213.8409454240873 368.2070104372297Q1226.3445142297721 372.2749523431889 1231.5257876047308 377.820199467628Q1236.728471200247 383.34403637150933 1236.728471200247 392.7431231963308L1236.728471200247 392.7431231963308Q1236.5785996563434 404.19759119468944 1228.5283567266558 410.47078581808967Q1220.4781137969683 416.76539066204754 1206.7755726400528 416.76539066204754ZM1301.4943883872286 347.6960191429725Q1295.970551483347 341.1230814317648 1286.335952232391 341.1230814317648Q1276.701352981435 341.1230814317648 1270.5994401224964 347.931531569107Q1264.4975272635577 354.73998170644916 1263.4484264562313 366.5584234542884L1263.4484264562313 366.5584234542884L1307.0182252911097 366.5584234542884Q1307.0182252911097 354.29036707473784 1301.4943883872286 347.6960191429725ZM1288.819537817082 416.76539066204754L1288.819537817082 416.76539066204754Q1270.8135423280733 416.76539066204754 1260.472405798714 405.3109226636888Q1250.1312692693546 393.87786488588785 1250.1312692693546 374.009180208361L1250.1312692693546 374.009180208361Q1250.1312692693546 354.8042123681222 1260.1298422697912 342.8787195174945Q1270.1498254907854 330.9532266668669 1286.4858237762949 330.7177142407324L1286.4858237762949 330.7177142407324Q1301.8369519161513 330.7177142407324 1310.8292445503769 341.2301325345532Q1319.8215371846022 351.7211406078163 1319.8215371846022 369.25611124455605L1319.8215371846022 369.25611124455605Q1319.8215371846022 370.17675072853626 1319.778716743487 372.5746954309964Q1319.7573065229292 374.99405035401423 1319.7573065229292 376.0431511613405L1319.7573065229292 376.0431511613405L1263.0630424861931 376.0431511613405Q1263.2985549123277 390.10966606773616 1270.3425174758042 397.9886272329623Q1277.3650698187232 405.8461781776308 1289.2691524487934 405.8461781776308L1289.2691524487934 405.8461781776308Q1302.3722074300933 405.8461781776308 1315.5394930730663 398.93067693750027L1315.5394930730663 398.93067693750027L1317.4878231438154 409.07912148184045Q1304.9200236764573 416.76539066204754 1288.819537817082 416.76539066204754Z " fill="#66fcf1" transform="matrix(0.6629684021749335,0,0,0.6629684021749336,0,49.7726352996512)"/></g></svg>